<svg xmlns="http://www.w3.org/2000/svg" viewBox="0 0 512 512">
  <defs>
    <radialGradient id="bg" cx="50%" cy="40%" r="70%">
      <stop offset="0%" stop-color="#fffaf5"/>
      <stop offset="100%" stop-color="#f0d8c2"/>
    </radialGradient>
    <radialGradient id="center" cx="50%" cy="50%" r="55%">
      <stop offset="0%" stop-color="#fffefc"/>
      <stop offset="100%" stop-color="#f6dcca"/>
    </radialGradient>
  </defs>
  <rect width="512" height="512" rx="96" fill="url(#bg)"/>
  <g transform="translate(256 256)">
    <circle r="180" fill="none" stroke="rgba(109,91,79,0.18)" stroke-dasharray="8 10"/>
    <circle r="130" fill="none" stroke="rgba(109,91,79,0.14)" stroke-dasharray="8 10"/>

    <g stroke-linecap="round">
      <line x1="0" y1="0" x2="0" y2="-170" stroke="#2d8a66" stroke-opacity="0.6" stroke-width="6"/>
      <line x1="0" y1="0" x2="162" y2="-53" stroke="#e3a93a" stroke-opacity="0.6" stroke-width="5"/>
      <line x1="0" y1="0" x2="100" y2="138" stroke="#d67844" stroke-opacity="0.6" stroke-width="5"/>
      <line x1="0" y1="0" x2="-100" y2="138" stroke="#c54f4f" stroke-opacity="0.6" stroke-width="5"/>
      <line x1="0" y1="0" x2="-162" y2="-53" stroke="#2d8a66" stroke-opacity="0.6" stroke-width="6"/>
    </g>

    <g>
      <circle cx="0" cy="-170" r="30" fill="#fff" stroke="#2d8a66" stroke-width="5"/>
      <circle cx="162" cy="-53" r="30" fill="#fff" stroke="#e3a93a" stroke-width="5"/>
      <circle cx="100" cy="138" r="30" fill="#fff" stroke="#d67844" stroke-width="5"/>
      <circle cx="-100" cy="138" r="30" fill="#fff" stroke="#c54f4f" stroke-width="5"/>
      <circle cx="-162" cy="-53" r="30" fill="#fff" stroke="#2d8a66" stroke-width="5"/>
    </g>

    <circle r="62" fill="url(#center)" stroke="#dd6f3f" stroke-width="7"/>
    <circle r="22" fill="#dd6f3f"/>
    <circle cx="-8" cy="-4" r="4" fill="#fff"/>
    <circle cx="8" cy="-4" r="4" fill="#fff"/>
    <path d="M -9 6 Q 0 14 9 6" stroke="#fff" stroke-width="3" fill="none" stroke-linecap="round"/>
  </g>
</svg>
